<?xml version="1.0" encoding="iso-8859-1"?>
<!-- Uploaded to: SVG Repo, www.svgrepo.com, Generator: SVG Repo Mixer Tools -->
<svg fill="#d5d5d5" height="800px" width="800px" version="1.1" id="Layer_1" xmlns="http://www.w3.org/2000/svg" xmlns:xlink="http://www.w3.org/1999/xlink" 
	 viewBox="0 0 509.968 509.968" xml:space="preserve">
<g>
	<g>
		<path d="M439.024,175.48c-39.68,0-71.968,31.936-71.968,71.184v72.32c0,8.832,7.168,16,16,16c8.832,0,16-7.168,16-16v-72.32
			c0-21.6,17.936-39.184,39.952-39.184c21.472,0,38.944,17.584,38.944,39.184c0,15.52-11.792,29.248-22.768,35.44
			c-5.024,2.848-8.128,8.16-8.128,13.936v86.944c0,8.832,7.168,16,16,16c8.832,0,16-7.168,16-16v-78.336
			c15.648-11.744,30.912-32.032,30.912-57.984C509.968,207.416,478.144,175.48,439.024,175.48z"/>
	</g>
</g>
<g>
	<g>
		<path d="M383.056,414.984H95.296c-17.776,0-32.24-14.976-32.24-33.376V296.04c0-5.776-3.104-11.088-8.128-13.936
			C43.888,275.88,32,262.12,32,246.664c0-21.6,17.712-39.184,39.52-39.184c21.808,0,39.536,17.584,39.536,39.184v72.32
			c0,8.832,7.168,16,16,16c8.832,0,16-7.168,16-16v-72.32c0-39.248-32.064-71.184-71.52-71.184C32.08,175.48,0,207.416,0,246.664
			c0,25.904,15.328,46.224,31.056,57.984v76.96c0,36.048,28.816,65.376,64.24,65.376h287.76c8.832,0,16-7.168,16-16
			C399.056,422.152,391.888,414.984,383.056,414.984z"/>
	</g>
</g>
<g>
	<g>
		<path d="M462.4,365.944c-8.832,0-16,7.168-16,16c0,18.832-13.36,33.04-31.088,33.04h-32.256c-8.832,0-16,7.168-16,16
			c0,8.832,7.168,16,16,16h32.256c35.376,0,63.088-28.576,63.088-65.04C478.4,373.112,471.232,365.944,462.4,365.944z"/>
	</g>
</g>
<g>
	<g>
		<path d="M370.8,286.984H139.328c-15.6,0-28.272,12.672-28.272,28.256v39.488c0,15.584,12.672,28.256,28.272,28.256h231.456
			c15.6,0,28.272-12.672,28.272-28.256V315.24C399.056,299.656,386.384,286.984,370.8,286.984z M367.056,350.984h-224v-32h224
			V350.984z"/>
	</g>
</g>
<g>
	<g>
		<path d="M368.464,62.984H142.128c-52.416,0-95.072,42.256-95.072,94.192v33.808c0,8.832,7.168,16,16,16c8.832,0,16-7.168,16-16
			v-33.808c0-34.288,28.304-62.192,63.072-62.192h226.336c34.512,0,62.592,27.904,62.592,62.192v33.808c0,8.832,7.168,16,16,16
			c8.832,0,16-7.168,16-16v-33.808C463.056,105.24,420.624,62.984,368.464,62.984z"/>
	</g>
</g>
</svg>