<?xml version="1.0" encoding="utf-8"?>
<!-- Generator: Adobe Illustrator 23.0.1, SVG Export Plug-In . SVG Version: 6.00 Build 0)  -->
<svg version="1.1" id="Layer_1" xmlns="http://www.w3.org/2000/svg" xmlns:xlink="http://www.w3.org/1999/xlink" x="0px" y="0px"
	 viewBox="0 0 100 100" style="enable-background:new 0 0 100 100;" xml:space="preserve">
<style type="text/css">
	.st0{fill:#FAB005;}
</style>
<g>
	<path class="st0" d="M16.1,11c0,0-0.3-0.2-0.9-0.5c-0.6-0.3-1-0.7-1.1-1.2c0.4-0.4,0.6-0.6,0.7-0.6c0.1,0,0.3,0.2,0.7,0.6
		c0.3,0.4,0.6,0.5,0.8,0.4c0.1-0.1,0.3-0.2,0.5-0.3c0.2-0.1,0.4-0.2,0.7-0.5c0.4-0.1,0.7-0.1,0.8,0.2c0.2,0.2,0.3,0.4,0.5,0.6
		c0.3,0,0.5,0,0.8,0c0.3,0,0.7-0.1,1-0.4l-1.1-0.6c-0.1-0.1-0.1-0.4,0-0.8c0.1-0.4,0.2-0.7,0.2-0.8l-1.5-0.9H17
		c-0.4-0.3-0.4-0.7,0-1.3c0.3-0.1,0.6-0.2,1-0.2c0.4,0,0.8-0.1,1-0.2c0,0.1,0,0.3,0,0.6c0,0.2,0.2,0.2,0.6,0L19,4.5
		c0.3-0.2,0.4-0.6,0.4-0.9c0.4-0.1,0.8-0.3,1.4-0.6c0.6-0.2,1-0.6,1.2-0.9c0-0.2-0.1-0.5-0.4-0.7C22.3,1,22.7,0.9,23,1.1
		c0.3,0.2,0.4,0.4,0.6,0.6h1.3l0.4,0.7h4.3l0.7,0.7c2.2,0,3.9,0.1,5,0.2c0.1,0.4,0.5,0.6,1,0.6c0.6,0,0.9,0.1,1,0.2
		c0.4,0.4,0.9,0.7,1.5,1c0.6,0.3,1.1,0.7,1.3,1h3.5c0.5,0.5,0.8,0.9,0.9,1.3H45c0.1,0,0.4,0,0.8,0c0.4,0,0.7,0.2,0.8,0.7h2.1L49.2,9
		H50c0.7,0,1.2,0.2,1.3,0.7h0.4c0.3,0,0.5,0.2,0.7,0.5c0.2,0.3,0.5,0.4,0.8,0.3h0.4c0.1,0,0.3,0.1,0.6,0.4c0.3,0.2,0.5,0.4,0.7,0.4
		c0.4,0,0.7,0.2,0.9,0.7h1.9l2.1,1.3h2.6l1.1,1.5h1.5l0.4,0.7c0.9,0,1.7,0.2,2.5,0.7c0.8,0.5,1.4,0.9,1.8,1.1
		c0.1,0.1,0.3,0.2,0.7,0.2c0.3,0,0.6,0.1,0.8,0.2l0.6,0.7h1.5l0.6,0.7h1.5c0.1,0.2,0.5,0.5,1.1,0.8c0.6,0.3,0.9,0.7,0.7,1.2h2.2
		L80,22h1.7l0.7,1.5c0.4-0.1,0.7,0,0.9,0.3c0.3,0.3,0.4,0.5,0.6,0.5c0.4,0.1,1,0.5,1.9,1.1l1.1,1.7l0.9,0.2V28
		c0,0.2,0.1,0.5,0.3,0.7c0.2,0.2,0.2,0.6-0.1,0.9l-0.9,0.7c-0.2,0.7-0.5,1.6-0.8,2.6c-0.3,1-0.7,2-1,3.2l-1.1,0.7L83,40.7l0.6,0.7
		c-0.5,0.2-0.9,0.5-1.1,0.7c0,0.6,0.1,1.2,0.2,1.7l-0.7,2.6l0.4,0.6l-3,2l0.4,2.6l-1.3,0.2l-0.6-0.7c-0.7,1.1-1.5,1.9-2.2,2.2
		c-0.5,0.2-0.9,0.6-1.3,1.1c-0.4,0.5-0.7,0.9-0.9,1.1c-1.4,1.1-2.2,1.9-2.4,2.2c-0.2,0.2-1.1,1-2.6,2.2c-0.6,0.4-1.6,1.1-2.8,2
		c-0.1,0.1-1,0.8-2.6,2L60.2,66c0.3,0.4,0.5,0.8,0.7,1.3c0.3-0.2,0.6-0.5,0.9-0.7c0.4-0.2,0.7-0.5,1.1-0.8c0.1,0.2,0,0.7-0.4,1.3
		c-0.5,0-0.8,0.2-0.9,0.7c-0.1,0-0.3,0-0.7-0.1c-0.3-0.1-0.6,0.1-0.8,0.5c0.4,0.1,0.7,0.2,0.8,0.2s0.4-0.2,0.7-0.6h0.7
		c0,0.2-0.1,0.6-0.4,1.1l-3.5,2.6c-0.4,0.2-0.9,0.5-1.7,0.8c-0.7,0.3-1.3,0.7-1.7,1.2h-1.1l0.2-0.7c0.6,0,0.9-0.2,0.9-0.7
		c0.6,0,0.9-0.2,0.9-0.6c0.1,0,0.3-0.1,0.7-0.2c0.3-0.1,0.3-0.3,0.1-0.6l-0.7,0.7c-0.4-0.1-0.7,0.1-0.9,0.6c-0.5,0-0.8,0.2-0.9,0.7
		C54.2,73,54,73.1,53.7,73c-0.2-0.1-0.5,0-0.7,0.1c-1.1,0.5-2.1,1-2.8,1.6c-0.7,0.6-1.7,1.4-3,2.5c-0.5,0-0.9,0.2-1.1,0.7
		c-0.1,0.1-0.2,0.2-0.4,0.2c-0.1,0-0.2,0.1-0.2,0.2c-0.1,0.2,0,0.4,0.4,0.4c-0.2,0.5-0.7,0.9-1.3,1.3c-0.6,0.4-1.1,0.7-1.3,0.9h-0.9
		l0.2-0.7c0.6,0,1.2-0.4,1.7-1.1c-0.4-0.5-0.8-0.4-1.3,0.2c-0.1,0.1-0.2,0.3-0.2,0.5c0,0.2-0.1,0.3-0.2,0.5h-0.9
		c-0.4,0.1-1,0.6-1.9,1.3c-0.9,0.7-1.6,1.1-2.2,0.9l-0.6,1.5h-0.6c-0.9,0-1.6,0.4-2.1,1.3c-0.4,0-0.7,0.2-0.9,0.7
		c-0.2,0-0.6,0.2-0.9,0.5c-0.4,0.3-0.7,0.5-0.9,0.7l0.6,0.7c-0.7,0.7-1.6,1.2-2.4,1.3c-0.4,0.7-1.1,1.4-2.1,2h-1.9l-4.5,3.4l0.4,0.7
		c-0.2,0.5-0.7,0.9-1.3,1.3c-0.6,0.4-1.1,0.7-1.3,0.9l-0.7-0.9l0.6-1.5l-0.6-0.7l0.7-2.2l-0.9-1.3c0.3-1,0.5-1.7,0.7-2.2
		c-0.6-0.6-1-1.1-1.1-1.3l0.4-1.3c0-0.2-0.1-0.8-0.2-1.6c-0.1-0.8-0.3-1.5-0.6-2c-0.2-0.7-0.5-1.7-0.7-3c0.1-0.4,0.5-0.7,1.1-1.1
		c0-0.3,0.3-1.2,0.9-3l1.5-0.4l0.6-1.1c0.4-0.2,0.9-0.3,1.7-0.3c0.7,0.1,1.3,0,1.7-0.1l1.9-1.3h0.7l0.9-1.3c0.5,0,0.8-0.1,0.9-0.2
		c0.4-0.1,0.9-0.5,1.6-1.1c0.7-0.6,1.3-0.9,2-0.9l3.4-2.6c0.4-0.2,1-0.6,1.8-0.9c0.8-0.4,1.4-0.7,1.8-1.1c0.1-0.1,0.5-0.5,1.2-1
		c0.7-0.6,1.4-0.9,2.1-1c0.4,0,0.7-0.3,0.9-0.7c0.4-0.3,0.8-0.5,1.2-0.8c0.4-0.3,0.8-0.6,1.2-0.8c0.4-0.2,0.8-0.5,1.2-0.7
		c0.4-0.2,0.8-0.4,1.2-0.7c0.9-0.9,1.7-1.3,2.4-1.3l0.4-0.4c0.5-0.4,1.2-0.8,2.1-1.4c0.9-0.6,1.7-1,2.4-1.4c0.6-0.4,1.4-0.9,2.2-1.6
		c0.9-0.7,1.6-1.2,2.1-1.6c0.7-0.1,1.5-0.5,2.2-1.2c0.7-0.7,1.4-1.2,1.9-1.4c0.3-0.4,0.3-0.8,0-1.3c-0.1-0.1-0.2-0.3-0.1-0.7
		c0.1-0.3,0.1-0.5,0.1-0.7h-1.5c-0.1-0.3-0.4-0.5-0.9-0.7c-0.5-0.2-0.8-0.5-0.9-0.7c-0.1-0.1-0.3-0.2-0.7-0.1
		c-0.3,0.1-0.5,0.1-0.7,0.1l-0.9-1.3l-1.9-0.4c0-0.1,0.1-0.2,0.2-0.2c0.7-0.3,1.4-0.4,2.1-0.4c0.1-0.4,0-0.6-0.5-0.7
		c-0.4-0.1-0.7-0.2-0.7-0.5c0-0.3-0.2-0.4-0.6-0.5c-0.4-0.1-0.6-0.2-0.7-0.3c-0.1-0.1-0.3-0.3-0.7-0.5c-0.3-0.2-0.6-0.3-0.8-0.5
		h-1.9c-0.4-0.4-0.6-0.6-0.6-0.7c-0.4,0.4-0.7,0.6-0.9,0.6h-3.7v-0.4c0-0.4,0.2-0.7,0.5-0.9c0.3-0.3,0.5-0.4,0.7-0.6v-0.9l-0.9,0.7
		c-0.7-0.5-1.3-0.8-1.7-0.9l0.4-0.7c-0.1-0.4-0.3-0.4-0.6-0.2c-0.2,0.2-0.4,0.4-0.6,0.4c-0.7,0-1.3,0.1-1.7,0.2l-0.6-1.5h-2.6
		l-1.3-2.2h-1.3l-0.9-0.7L35.6,30h-4.1c-0.2-0.2-0.4-0.5-0.6-0.7c-0.1-0.3-0.2-0.5-0.4-0.7h-2.1c-0.2-0.1-0.5-0.4-0.8-0.8
		c-0.3-0.4-0.6-0.8-0.8-1.2l-0.9,0.7h-0.4c-0.2,0-0.5-0.2-0.7-0.6c-0.2-0.4-0.5-0.4-0.8-0.2c-0.7-0.7-1.3-1.2-1.7-1.3
		c-0.9-0.6-1.4-1-1.5-1.1c-0.4-0.4-0.9-0.7-1.7-1.1l-0.7,0.6l-0.9-1.3c-0.6,0-1.2-0.2-1.8-0.6c-0.6-0.4-1-0.6-1.2-0.7l0.6-0.9
		c0.1,0.1,0.3,0.2,0.4,0.4c0.1,0.1,0.3,0.2,0.6,0.2c0.3,0,0.5-0.1,0.7-0.2c0.3-0.1,0.5-0.2,0.7-0.4l0.2,0.6h0.7
		c0.1,0.1,0.3,0.2,0.5,0.1c0.2-0.1,0.4-0.1,0.7-0.1l0.6-0.9c-0.1-0.1-0.5-0.4-1.1-0.7c-0.6-0.4-1.3-0.6-2-0.6l0.2-0.9
		c0.4-0.3,0.7-0.4,1-0.4c0.3,0,0.6,0,0.8,0l0.7,0.7c0.3-0.1,0.6-0.2,0.9-0.2c0.3-0.1,0.6-0.5,1-1.1c0.4-0.6,0.8-1.1,1.2-1.3
		c-0.6-1.1-1.6-1.7-3-1.7c-0.2-0.1-0.5-0.3-0.7-0.6c-0.2-0.2-0.6-0.3-0.9-0.2c-0.4,0.1-0.7,0.1-0.8-0.2c-0.2-0.3-0.3-0.4-0.5-0.6
		c-0.1-0.1-0.3-0.2-0.5-0.2c-0.2,0-0.3-0.1-0.3-0.2C16.1,11.2,16.1,11,16.1,11z M63.8,67.7c-0.5,0.2-0.9,0.3-1.3,0.2
		c0.1-0.1,0.2-0.4,0.2-0.7c0.7-0.1,1.4-0.6,2-1.5c0.5,0,0.8-0.3,0.9-0.7h1.1c0,0.4,0.1,0.7,0.2,0.9c-1.1,0.7-1.8,1.2-2.1,1.3
		C64.6,67.3,64.3,67.4,63.8,67.7z M64.7,65.6c-0.4,0-0.6-0.2-0.6-0.5c0-0.3,0-0.5,0-0.7l2.1-0.7c0,0.1-0.1,0.3-0.3,0.5
		c-0.2,0.2-0.3,0.4-0.3,0.7C65.1,64.9,64.8,65.1,64.7,65.6z M59.7,67.5c0-0.1-0.1-0.2-0.2-0.2c-0.2,0-0.4,0.1-0.6,0.2
		c0.1,0,0.2,0.1,0.2,0.2L59.7,67.5z M51.2,33.9c-0.2-0.1-0.5,0-0.8,0.1c0,0.4,0.2,0.6,0.5,0.6c0.3,0,0.6,0,0.8,0v0.6h3
		c0.1,0,0.2-0.1,0.2-0.2c0-0.1,0.1-0.3,0.2-0.4h-3.4C51.5,34.1,51.4,33.9,51.2,33.9z M54.1,73.7c-0.1,0.5-0.4,0.7-0.9,0.7
		C53.3,73.9,53.6,73.7,54.1,73.7z M53.3,40.1l0.6,0.6c-0.6,0.2-0.8,0.2-0.6-0.2l-0.6-0.7C53.2,39.5,53.3,39.6,53.3,40.1z M50.7,75.3
		c0.6-0.4,1.1-0.7,1.3-0.9h1.1c-0.2,0.2-1.1,1-2.6,2.2h-1.1C49.7,76.1,50.1,75.7,50.7,75.3z M50,38.1l0.4-0.2v-0.6L50,37.7V38.1z
		 M48.5,33.8l1.1-0.2c0-0.3,0.1-0.4,0.2-0.6h-0.9l-0.4,0.2V33.8z M49.4,76.6c0,0.2-0.1,0.4-0.3,0.6c-0.2,0.1-0.4,0.1-0.7,0
		C48.7,76.7,49.1,76.5,49.4,76.6z M47.2,77.2h1.3c-0.5,1.2-1.4,1.7-2.6,1.5l0.2-0.7C46.7,77.9,47.1,77.7,47.2,77.2z M46.8,31.4
		c-0.5-0.1-1.1,0-1.7,0.3c0.1,0.2,0.4,0.5,0.7,0.7c0.4,0.2,0.6,0.4,0.7,0.7h0.7c0.5-0.5,0.6-1,0.4-1.5
		C47.6,31.5,47.3,31.5,46.8,31.4z M45.7,30.2l0.2,0.6l0.2-0.2c0.1-0.1,0.2-0.2,0.1-0.3c-0.1-0.1-0.1-0.2-0.1-0.3
		C46.1,30.2,45.9,30.2,45.7,30.2z M44.8,36.6v0.6l-0.4,0.2v-0.4C44.4,36.9,44.5,36.8,44.8,36.6z M43.3,31.3l0.6-0.2V31l-0.6,0.2
		V31.3z M42.9,36.1c0,0.1,0.1,0.1,0.2,0.1l-0.6,0.4l-0.2-0.4L42.9,36.1C42.9,36,42.9,36,42.9,36.1z M39.2,29.7v1.1h1.3
		c-0.2,0.5-0.2,0.7,0.2,0.7c0.4,0,0.6,0,0.7,0c0.1-0.2,0.3-0.5,0.6-0.7c0.3-0.2,0.5-0.5,0.7-0.8h-1.3v-0.6
		C40.5,29.2,39.8,29.3,39.2,29.7z M42.5,80.9c-0.5,0.2-0.8,0.5-0.9,0.7C41.5,81.2,41.8,80.9,42.5,80.9z M41.8,35.4l-0.6,0.4L41,35.4
		l0.6-0.2L41.8,35.4z M41.4,30c-0.1,0.5-0.4,0.7-0.9,0.7C40.5,30.3,40.8,30,41.4,30z M40.5,34.9l-0.4,0.2c-0.1-0.1-0.1-0.3,0-0.4
		l0.2-0.2L40.5,34.9z M39.9,82.4l0.2,0.4l-0.4,0.4v-0.6L39.9,82.4z M38.2,26.1l0.2,0.2l0.6-0.2c0.1-0.3,0.2-0.6,0.2-1.1l-0.4,0.2
		L38.2,26.1z M38.2,28.9c0,0,0,0.1,0,0.2c0,0.1,0.1,0.2,0.2,0.2l0.4-0.4l-0.2-0.4C38.4,28.8,38.2,28.9,38.2,28.9z M33.6,33
		c-0.7,0-1.3-0.1-1.7-0.2l0.2-0.9l0.7-0.4l2.4,1.5h2.6l0.7,0.9c-0.4,0.2-0.7,0.4-0.9,0.4c-0.2,0-0.5-0.2-0.7-0.6h-2.8L33.6,33z
		 M38.2,83.7c-0.3,0.1-0.5,0.2-0.7,0.2l0.9-0.7C38.6,83.4,38.5,83.6,38.2,83.7z M36.8,84.5l0.2-0.6h0.7c-0.2,0.5-0.5,0.7-0.7,0.6
		l-0.7,0.7c-0.2-0.3-0.2-0.4,0.1-0.6c0.3-0.1,0.5-0.2,0.7-0.2H36.8z M36.8,28.4c0-0.3-0.1-0.4-0.2-0.6l-0.2,0.4v0.4L36.8,28.4z
		 M29.9,20.7c0.4,0.6,0.7,1,1,1.2c0.3,0.2,0.8,0.4,1.6,0.7c-0.2-1-0.4-1.7-0.4-2c0.7,0,1.3,0.2,1.7,0.7c1.1,0,1.9-0.1,2.4-0.2
		c0,0.1,0,0.3,0,0.7c0,0.3,0.2,0.3,0.6,0.1l-0.6-0.6c0.1-0.4,0.1-0.6-0.2-0.6c-0.2-0.1-0.5-0.2-0.7-0.1c-0.2,0.1-0.4,0-0.6-0.1
		c-0.2-0.5-0.7-0.7-1.2-0.7c-0.6,0.1-1,0.1-1.2,0.1c0.3-0.5,0.1-0.7-0.6-0.7C30.7,19.7,30.1,20.2,29.9,20.7z M34.1,86
		c0,0,0.1-0.2,0.2-0.7c0.3,0.2,0.4,0.6,0.4,1.1c-0.9,0.4-1.5,0.6-1.9,0.7c0.4-0.5,0.6-0.9,0.6-1.1C33.9,86,34.1,86,34.1,86z
		 M32.7,27c0.2,0.1,0.5,0,0.8-0.1c0-0.4-0.2-0.5-0.5-0.5c-0.3,0.1-0.5,0.1-0.7,0.1c-0.1-0.4-0.3-0.6-0.5-0.7c-0.2-0.1-0.5,0-0.8,0.1
		c0,0.4,0.2,0.6,0.5,0.6c0.3,0,0.6,0,0.8,0C32.5,26.7,32.6,26.9,32.7,27z M32.8,23.4c0,0.1,0.1,0.1,0.2,0.1c0-0.2,0.1-0.4,0.4-0.4
		l-0.2-0.4C33,23,32.8,23.2,32.8,23.4C32.8,23.3,32.8,23.4,32.8,23.4z M32.3,20l-0.2,0.6c-0.1,0.1-0.2,0.1-0.4,0
		c-0.1-0.1-0.1-0.3,0-0.4C31.7,20,31.9,20,32.3,20z M30.5,31.6c-0.3-0.1-0.6-0.1-0.8-0.1c-0.2-0.5-0.5-0.9-0.7-1.1l0.7-0.4H30
		c0.1,0.2,0.4,0.5,0.7,0.7c0.4,0.2,0.6,0.3,0.7,0.5C31.2,31.5,30.8,31.7,30.5,31.6z M27.3,23.5c-0.6,0-1,0-1.2,0V23
		c0.1,0,0.3-0.1,0.7-0.2c0.3-0.1,0.3-0.3,0.1-0.6l-0.6,0.6h-1.1L24.8,23c0,0.4,0.1,0.6,0.2,0.6h1.1c-0.2,0.5-0.4,0.9-0.4,1.1
		l1.5,0.9l0.9-0.6c0.7,0,1.3-0.1,1.7-0.2c0,0.1,0,0.3,0,0.6c0,0.2,0.2,0.2,0.6,0c0-0.2-0.2-0.4-0.6-0.4c0.1-0.1,0.2-0.3,0.1-0.5
		c-0.1-0.2-0.2-0.3-0.3-0.3c-0.1,0-0.3,0-0.7,0.1c-0.3,0.1-0.5,0-0.7-0.3C28.2,23.7,27.9,23.5,27.3,23.5z M29.6,4.4
		c0.1,0.1,0.1,0.2,0.1,0.3L30,4.3l-0.2-0.4l-0.2,0.2C29.5,4.3,29.5,4.3,29.6,4.4z M28.4,29.9c0,0-0.1,0-0.2,0
		C28.1,30,27.7,30,27.2,30c-0.1,0-0.2-0.1-0.2-0.4c0-0.1,0.1-0.2,0.4-0.4l0.9,0.2C28.4,29.7,28.4,29.9,28.4,29.9z M21.3,9.9
		c0.3,0.5,0.4,0.9,0.4,1.3c1,0,2,0.3,2.9,1c0.9,0.7,1.6,1.1,2.1,1.2c0.7-0.6,0.9-1.1,0.6-1.5l-1.5-0.2v-1.3
		c-0.5,0.2-0.9,0.5-1.1,0.7l-0.6-0.7h-1.3l-0.6-0.7L21.3,9.9z M26.1,16.6c0-0.1-0.1-0.2-0.2-0.2c0.1,0,0.4,0,0.7-0.1
		c0.4-0.1,0.4-0.3,0.2-0.7l-0.6,0.6l-0.7,0.2c-0.1,0.4,0,0.6,0.4,0.6c0.1,0.4,0.3,0.6,0.5,0.6s0.5-0.1,0.8-0.2
		c0-0.3-0.2-0.4-0.5-0.4c-0.3,0-0.6,0-0.8,0C26.1,16.9,26.1,16.7,26.1,16.6z M25.6,28.5v0.6l-0.4,0.2v-0.4
		C25.2,28.9,25.3,28.8,25.6,28.5z M24.1,22l-0.4,0.4v0.4l0.4-0.2V22z M23,21.8c0,0,0-0.1,0-0.4c-0.4,0-0.7-0.1-0.9-0.2
		c-0.2,0.1-0.4,0.2-0.4,0.4l0.2,0.4h0.9C22.9,21.9,23,21.8,23,21.8z M21.5,18.5l0.6-0.6c-0.1,0-0.2-0.1-0.2-0.2
		c-0.2,0.2-0.4,0.4-0.4,0.6C21.5,18.3,21.5,18.4,21.5,18.5z M21.7,9L22,8.8V8.2l-0.4,0.4V9z M21.3,26.7l-0.4,0.6l-0.2-0.4l0.4-0.4
		L21.3,26.7z M20.7,21.3c0,0,0.1-0.1,0.4-0.4l-0.2-0.4c-0.2,0.2-0.4,0.4-0.4,0.6c-0.1,0-0.1,0.1,0,0.2
		C20.7,21.3,20.7,21.3,20.7,21.3z M18.5,98.4h1.1v0.4L19.2,99h-0.9C18.4,98.9,18.5,98.7,18.5,98.4z M18.1,25.6L17,25.8v-0.6l0.2-0.2
		c0.5,0,0.8,0.1,0.9,0.2V25.6z M16.8,14c-0.2,0-0.4-0.1-0.6-0.4c0.6-0.4,1.1-0.4,1.3,0C17.3,13.9,17.1,14,16.8,14z M15.5,24.4
		c0,0,0,0.1,0,0.2l-0.6,0.2c0-0.1-0.1-0.2-0.2-0.2c0.1-0.1,0.3-0.2,0.6-0.2C15.4,24.4,15.5,24.4,15.5,24.4z M14.5,16
		c-0.2-0.1-0.3-0.2-0.3-0.5c0.1,0,0.3,0,0.7-0.1c0.3-0.1,0.5,0.1,0.5,0.5C14.9,16,14.7,16,14.5,16z M13.4,15.5
		c-0.3,0-0.5-0.1-0.5-0.4c0.4-0.1,0.7-0.2,0.8-0.2c0.2,0,0.3,0.2,0.5,0.6C14,15.5,13.7,15.5,13.4,15.5z M11.8,14.8v-0.4l0.4-0.4v0.6
		L11.8,14.8z"/>
</g>
</svg>
