<?xml version="1.0" encoding="utf-8"?>
<!-- Generator: Adobe Illustrator 23.0.1, SVG Export Plug-In . SVG Version: 6.00 Build 0)  -->
<svg version="1.1" id="Layer_1" xmlns="http://www.w3.org/2000/svg" xmlns:xlink="http://www.w3.org/1999/xlink" x="0px" y="0px"
	 viewBox="0 0 100 100" style="enable-background:new 0 0 100 100;" xml:space="preserve">
<style type="text/css">
	.st0{fill:#FAB005;}
</style>
<g>
	<path class="st0" d="M83.9,89c0,0,0.3,0.2,0.9,0.5c0.6,0.3,1,0.7,1.1,1.2c-0.4,0.4-0.6,0.6-0.7,0.6c-0.1,0-0.3-0.2-0.7-0.6
		c-0.3-0.4-0.6-0.5-0.8-0.4c-0.1,0.1-0.3,0.2-0.5,0.3c-0.2,0.1-0.4,0.2-0.7,0.5c-0.4,0.1-0.7,0.1-0.8-0.2c-0.2-0.2-0.3-0.4-0.5-0.6
		c-0.3,0-0.5,0-0.8,0c-0.3,0-0.7,0.1-1,0.4l1.1,0.6c0.1,0.1,0.1,0.4,0,0.8c-0.1,0.4-0.2,0.7-0.2,0.8l1.5,0.9H83
		c0.4,0.3,0.4,0.7,0,1.3c-0.3,0.1-0.6,0.2-1,0.2c-0.4,0-0.8,0.1-1,0.2c0-0.1,0-0.3,0-0.6c0-0.2-0.2-0.2-0.6,0l0.6,0.6
		c-0.3,0.2-0.4,0.6-0.4,0.9c-0.4,0.1-0.8,0.3-1.4,0.6c-0.6,0.2-1,0.6-1.2,0.9c0,0.2,0.1,0.5,0.4,0.7c-0.6,0.4-1.1,0.4-1.3,0.2
		c-0.3-0.2-0.4-0.4-0.6-0.6h-1.3l-0.4-0.7h-4.3l-0.7-0.7c-2.2,0-3.9-0.1-5-0.2c-0.1-0.4-0.5-0.6-1-0.6c-0.6,0-0.9-0.1-1-0.2
		c-0.4-0.4-0.9-0.7-1.5-1c-0.6-0.3-1.1-0.7-1.3-1h-3.5c-0.5-0.5-0.8-0.9-0.9-1.3H55c-0.1,0-0.4,0-0.8,0c-0.4,0-0.7-0.2-0.8-0.7h-2.1
		L50.8,91H50c-0.7,0-1.2-0.2-1.3-0.7h-0.4c-0.3,0-0.5-0.2-0.7-0.5c-0.2-0.3-0.5-0.4-0.8-0.3h-0.4c-0.1,0-0.3-0.1-0.6-0.4
		c-0.3-0.2-0.5-0.4-0.7-0.4c-0.4,0-0.7-0.2-0.9-0.7h-1.9l-2.1-1.3h-2.6l-1.1-1.5h-1.5l-0.4-0.7c-0.9,0-1.7-0.2-2.5-0.7
		c-0.8-0.5-1.4-0.9-1.8-1.1c-0.1-0.1-0.3-0.2-0.7-0.2c-0.3,0-0.6-0.1-0.8-0.2l-0.6-0.7h-1.5l-0.6-0.7h-1.5c-0.1-0.2-0.5-0.5-1.1-0.8
		c-0.6-0.3-0.9-0.7-0.7-1.2h-2.2L20,78h-1.7l-0.7-1.5c-0.4,0.1-0.7,0-0.9-0.3c-0.3-0.3-0.4-0.5-0.6-0.5c-0.4-0.1-1-0.5-1.9-1.1
		l-1.1-1.7l-0.9-0.2V72c0-0.2-0.1-0.5-0.3-0.7c-0.2-0.2-0.2-0.6,0.1-0.9l0.9-0.7c0.2-0.7,0.5-1.6,0.8-2.6c0.3-1,0.7-2,1-3.2l1.1-0.7
		l1.1-3.7l-0.6-0.7c0.5-0.2,0.9-0.5,1.1-0.7c0-0.6-0.1-1.2-0.2-1.7l0.7-2.6L17.8,53l3-2l-0.4-2.6l1.3-0.2l0.6,0.7
		c0.7-1.1,1.5-1.9,2.2-2.2c0.5-0.2,0.9-0.6,1.3-1.1c0.4-0.5,0.7-0.9,0.9-1.1c1.4-1.1,2.2-1.9,2.4-2.2c0.2-0.2,1.1-1,2.6-2.2
		c0.6-0.4,1.6-1.1,2.8-2c0.1-0.1,1-0.8,2.6-2l2.6-1.9c-0.3-0.4-0.5-0.8-0.7-1.3c-0.3,0.2-0.6,0.5-0.9,0.7c-0.4,0.2-0.7,0.5-1.1,0.8
		c-0.1-0.2,0-0.7,0.4-1.3c0.5,0,0.8-0.2,0.9-0.7c0.1,0,0.3,0,0.7,0.1c0.3,0.1,0.6-0.1,0.8-0.5c-0.4-0.1-0.7-0.2-0.8-0.2
		s-0.4,0.2-0.7,0.6h-0.7c0-0.2,0.1-0.6,0.4-1.1l3.5-2.6c0.4-0.2,0.9-0.5,1.7-0.8c0.7-0.3,1.3-0.7,1.7-1.2h1.1l-0.2,0.7
		c-0.6,0-0.9,0.2-0.9,0.7c-0.6,0-0.9,0.2-0.9,0.6c-0.1,0-0.3,0.1-0.7,0.2c-0.3,0.1-0.3,0.3-0.1,0.6l0.7-0.7c0.4,0.1,0.7-0.1,0.9-0.6
		c0.5,0,0.8-0.2,0.9-0.7c0.1-0.1,0.3-0.2,0.6-0.1c0.2,0.1,0.5,0,0.7-0.1c1.1-0.5,2.1-1,2.8-1.6c0.7-0.6,1.7-1.4,3-2.5
		c0.5,0,0.9-0.2,1.1-0.7c0.1-0.1,0.2-0.2,0.4-0.2c0.1,0,0.2-0.1,0.2-0.2c0.1-0.2,0-0.4-0.4-0.4c0.2-0.5,0.7-0.9,1.3-1.3
		c0.6-0.4,1.1-0.7,1.3-0.9h0.9l-0.2,0.7c-0.6,0-1.2,0.4-1.7,1.1c0.4,0.5,0.8,0.4,1.3-0.2c0.1-0.1,0.2-0.3,0.2-0.5
		c0-0.2,0.1-0.3,0.2-0.5h0.9c0.4-0.1,1-0.6,1.9-1.3c0.9-0.7,1.6-1.1,2.2-0.9l0.6-1.5h0.6c0.9,0,1.6-0.4,2.1-1.3
		c0.4,0,0.7-0.2,0.9-0.7c0.2,0,0.6-0.2,0.9-0.5c0.4-0.3,0.7-0.5,0.9-0.7l-0.6-0.7c0.7-0.7,1.6-1.2,2.4-1.3c0.4-0.7,1.1-1.4,2.1-2
		h1.9l4.5-3.4l-0.4-0.7c0.2-0.5,0.7-0.9,1.3-1.3C80.3,3,80.7,2.7,81,2.5l0.7,0.9l-0.6,1.5l0.6,0.7L81,7.9l0.9,1.3
		c-0.3,1-0.5,1.7-0.7,2.2c0.6,0.6,1,1.1,1.1,1.3L81.9,14c0,0.2,0.1,0.8,0.2,1.6c0.1,0.8,0.3,1.5,0.6,2c0.2,0.7,0.5,1.7,0.7,3
		c-0.1,0.4-0.5,0.7-1.1,1.1c0,0.3-0.3,1.2-0.9,3L79.8,25l-0.6,1.1c-0.4,0.2-0.9,0.3-1.7,0.3c-0.7-0.1-1.3,0-1.7,0.1l-1.9,1.3h-0.7
		l-0.9,1.3c-0.5,0-0.8,0.1-0.9,0.2c-0.4,0.1-0.9,0.5-1.6,1.1c-0.7,0.6-1.3,0.9-2,0.9L64.6,34c-0.4,0.2-1,0.6-1.8,0.9
		C62,35.3,61.4,35.7,61,36c-0.1,0.1-0.5,0.5-1.2,1c-0.7,0.6-1.4,0.9-2.1,1c-0.4,0-0.7,0.3-0.9,0.7c-0.4,0.3-0.8,0.5-1.2,0.8
		c-0.4,0.3-0.8,0.6-1.2,0.8c-0.4,0.2-0.8,0.5-1.2,0.7c-0.4,0.2-0.8,0.4-1.2,0.7c-0.9,0.9-1.7,1.3-2.4,1.3l-0.4,0.4
		c-0.5,0.4-1.2,0.8-2.1,1.4c-0.9,0.6-1.7,1-2.4,1.4c-0.6,0.4-1.4,0.9-2.2,1.6c-0.9,0.7-1.6,1.2-2.1,1.6c-0.7,0.1-1.5,0.5-2.2,1.2
		c-0.7,0.7-1.4,1.2-1.9,1.4c-0.3,0.4-0.3,0.8,0,1.3c0.1,0.1,0.2,0.3,0.1,0.7c-0.1,0.3-0.1,0.5-0.1,0.7h1.5c0.1,0.3,0.4,0.5,0.9,0.7
		c0.5,0.2,0.8,0.5,0.9,0.7c0.1,0.1,0.3,0.2,0.7,0.1c0.3-0.1,0.5-0.1,0.7-0.1l0.9,1.3l1.9,0.4c0,0.1-0.1,0.2-0.2,0.2
		c-0.7,0.3-1.4,0.4-2.1,0.4c-0.1,0.4,0,0.6,0.5,0.7c0.4,0.1,0.7,0.2,0.7,0.5c0,0.3,0.2,0.4,0.6,0.5c0.4,0.1,0.6,0.2,0.7,0.3
		c0.1,0.1,0.3,0.3,0.7,0.5c0.3,0.2,0.6,0.3,0.8,0.5h1.9c0.4,0.4,0.6,0.6,0.6,0.7c0.4-0.4,0.7-0.6,0.9-0.6h3.7v0.4
		c0,0.4-0.2,0.7-0.5,0.9c-0.3,0.3-0.5,0.4-0.7,0.6v0.9l0.9-0.7c0.7,0.5,1.3,0.8,1.7,0.9l-0.4,0.7c0.1,0.4,0.3,0.4,0.6,0.2
		c0.2-0.2,0.4-0.4,0.6-0.4c0.7,0,1.3-0.1,1.7-0.2l0.6,1.5h2.6l1.3,2.2h1.3l0.9,0.7l1.3,0.7h4.1c0.2,0.2,0.4,0.5,0.6,0.7
		c0.1,0.3,0.2,0.5,0.4,0.7h2.1c0.2,0.1,0.5,0.4,0.8,0.8c0.3,0.4,0.6,0.8,0.8,1.2l0.9-0.7h0.4c0.2,0,0.5,0.2,0.7,0.6
		c0.2,0.4,0.5,0.4,0.8,0.2c0.7,0.7,1.3,1.2,1.7,1.3c0.9,0.6,1.4,1,1.5,1.1c0.4,0.4,0.9,0.7,1.7,1.1l0.7-0.6l0.9,1.3
		c0.6,0,1.2,0.2,1.8,0.6c0.6,0.4,1,0.6,1.2,0.7L84.9,80c-0.1-0.1-0.3-0.2-0.4-0.4c-0.1-0.1-0.3-0.2-0.6-0.2c-0.3,0-0.5,0.1-0.7,0.2
		c-0.3,0.1-0.5,0.2-0.7,0.4l-0.2-0.6h-0.7c-0.1-0.1-0.3-0.2-0.5-0.1c-0.2,0.1-0.4,0.1-0.7,0.1l-0.6,0.9c0.1,0.1,0.5,0.4,1.1,0.7
		c0.6,0.4,1.3,0.6,2,0.6l-0.2,0.9c-0.4,0.3-0.7,0.4-1,0.4c-0.3,0-0.6,0-0.8,0l-0.7-0.7c-0.3,0.1-0.6,0.2-0.9,0.2
		c-0.3,0.1-0.6,0.5-1,1.1c-0.4,0.6-0.8,1.1-1.2,1.3c0.6,1.1,1.6,1.7,3,1.7c0.2,0.1,0.5,0.3,0.7,0.6c0.2,0.2,0.6,0.3,0.9,0.2
		c0.4-0.1,0.7-0.1,0.8,0.2c0.2,0.3,0.3,0.4,0.5,0.6c0.1,0.1,0.3,0.2,0.5,0.2c0.2,0,0.3,0.1,0.3,0.2C83.9,88.8,83.9,89,83.9,89z
		 M36.2,32.3c0.5-0.2,0.9-0.3,1.3-0.2c-0.1,0.1-0.2,0.4-0.2,0.7c-0.7,0.1-1.4,0.6-2,1.5c-0.5,0-0.8,0.3-0.9,0.7h-1.1
		c0-0.4-0.1-0.7-0.2-0.9c1.1-0.7,1.8-1.2,2.1-1.3C35.4,32.7,35.7,32.6,36.2,32.3z M35.3,34.4c0.4,0,0.6,0.2,0.6,0.5
		c0,0.3,0,0.5,0,0.7l-2.1,0.7c0-0.1,0.1-0.3,0.3-0.5c0.2-0.2,0.3-0.4,0.3-0.7C34.9,35.1,35.2,34.9,35.3,34.4z M40.3,32.5
		c0,0.1,0.1,0.2,0.2,0.2c0.2,0,0.4-0.1,0.6-0.2c-0.1,0-0.2-0.1-0.2-0.2L40.3,32.5z M48.8,66.1c0.2,0.1,0.5,0,0.8-0.1
		c0-0.4-0.2-0.6-0.5-0.6c-0.3,0-0.6,0-0.8,0v-0.6h-3c-0.1,0-0.2,0.1-0.2,0.2c0,0.1-0.1,0.3-0.2,0.4h3.4
		C48.5,65.9,48.6,66.1,48.8,66.1z M45.9,26.3c0.1-0.5,0.4-0.7,0.9-0.7C46.7,26.1,46.4,26.3,45.9,26.3z M46.7,59.9l-0.6-0.6
		c0.6-0.2,0.8-0.2,0.6,0.2l0.6,0.7C46.8,60.5,46.7,60.4,46.7,59.9z M49.3,24.7c-0.6,0.4-1.1,0.7-1.3,0.9h-1.1c0.2-0.2,1.1-1,2.6-2.2
		h1.1C50.3,23.9,49.9,24.3,49.3,24.7z M50,61.9l-0.4,0.2v0.6l0.4-0.4V61.9z M51.5,66.2l-1.1,0.2c0,0.3-0.1,0.4-0.2,0.6h0.9l0.4-0.2
		V66.2z M50.6,23.4c0-0.2,0.1-0.4,0.3-0.6c0.2-0.1,0.4-0.1,0.7,0C51.3,23.3,50.9,23.5,50.6,23.4z M52.8,22.8h-1.3
		c0.5-1.2,1.4-1.7,2.6-1.5l-0.2,0.7C53.3,22.1,52.9,22.3,52.8,22.8z M53.2,68.6c0.5,0.1,1.1,0,1.7-0.3c-0.1-0.2-0.4-0.5-0.7-0.7
		c-0.4-0.2-0.6-0.4-0.7-0.7h-0.7c-0.5,0.5-0.6,1-0.4,1.5C52.4,68.5,52.7,68.5,53.2,68.6z M54.3,69.8l-0.2-0.6l-0.2,0.2
		c-0.1,0.1-0.2,0.2-0.1,0.3c0.1,0.1,0.1,0.2,0.1,0.3C53.9,69.8,54.1,69.8,54.3,69.8z M55.2,63.4v-0.6l0.4-0.2v0.4
		C55.6,63.1,55.5,63.2,55.2,63.4z M56.7,68.7l-0.6,0.2V69l0.6-0.2V68.7z M57.1,63.9c0-0.1-0.1-0.1-0.2-0.1l0.6-0.4l0.2,0.4
		L57.1,63.9C57.1,64,57.1,64,57.1,63.9z M60.8,70.3v-1.1h-1.3c0.2-0.5,0.2-0.7-0.2-0.7c-0.4,0-0.6,0-0.7,0c-0.1,0.2-0.3,0.5-0.6,0.7
		c-0.3,0.2-0.5,0.5-0.7,0.8h1.3v0.6C59.5,70.8,60.2,70.7,60.8,70.3z M57.5,19.1c0.5-0.2,0.8-0.5,0.9-0.7
		C58.5,18.8,58.2,19.1,57.5,19.1z M58.2,64.6l0.6-0.4l0.2,0.4l-0.6,0.2L58.2,64.6z M58.6,70c0.1-0.5,0.4-0.7,0.9-0.7
		C59.5,69.7,59.2,70,58.6,70z M59.5,65.1l0.4-0.2c0.1,0.1,0.1,0.3,0,0.4l-0.2,0.2L59.5,65.1z M60.1,17.6l-0.2-0.4l0.4-0.4v0.6
		L60.1,17.6z M61.8,73.9l-0.2-0.2L61,73.9c-0.1,0.3-0.2,0.6-0.2,1.1l0.4-0.2L61.8,73.9z M61.8,71.1c0,0,0-0.1,0-0.2
		c0-0.1-0.1-0.2-0.2-0.2l-0.4,0.4l0.2,0.4C61.6,71.2,61.8,71.1,61.8,71.1z M66.4,67c0.7,0,1.3,0.1,1.7,0.2l-0.2,0.9l-0.7,0.4
		L64.7,67h-2.6L61.4,66c0.4-0.2,0.7-0.4,0.9-0.4c0.2,0,0.5,0.2,0.7,0.6h2.8L66.4,67z M61.8,16.3c0.3-0.1,0.5-0.2,0.7-0.2l-0.9,0.7
		C61.4,16.6,61.5,16.4,61.8,16.3z M63.2,15.5l-0.2,0.6h-0.7c0.2-0.5,0.5-0.7,0.7-0.6l0.7-0.7c0.2,0.3,0.2,0.4-0.1,0.6
		c-0.3,0.1-0.5,0.2-0.7,0.2H63.2z M63.2,71.6c0,0.3,0.1,0.4,0.2,0.6l0.2-0.4v-0.4L63.2,71.6z M70.1,79.3c-0.4-0.6-0.7-1-1-1.2
		c-0.3-0.2-0.8-0.4-1.6-0.7c0.2,1,0.4,1.7,0.4,2c-0.7,0-1.3-0.2-1.7-0.7c-1.1,0-1.9,0.1-2.4,0.2c0-0.1,0-0.3,0-0.7
		c0-0.3-0.2-0.3-0.6-0.1l0.6,0.6c-0.1,0.4-0.1,0.6,0.2,0.6c0.2,0.1,0.5,0.2,0.7,0.1c0.2-0.1,0.4,0,0.6,0.1c0.2,0.5,0.7,0.7,1.2,0.7
		c0.6-0.1,1-0.1,1.2-0.1c-0.3,0.5-0.1,0.7,0.6,0.7C69.3,80.3,69.9,79.8,70.1,79.3z M65.9,14c0,0-0.1,0.2-0.2,0.7
		c-0.3-0.2-0.4-0.6-0.4-1.1c0.9-0.4,1.5-0.6,1.9-0.7c-0.4,0.5-0.6,0.9-0.6,1.1C66.1,14,65.9,14,65.9,14z M67.3,73
		c-0.2-0.1-0.5,0-0.8,0.1c0,0.4,0.2,0.5,0.5,0.5c0.3-0.1,0.5-0.1,0.7-0.1c0.1,0.4,0.3,0.6,0.5,0.7c0.2,0.1,0.5,0,0.8-0.1
		c0-0.4-0.2-0.6-0.5-0.6c-0.3,0-0.6,0-0.8,0C67.5,73.3,67.4,73.1,67.3,73z M67.2,76.6c0-0.1-0.1-0.1-0.2-0.1c0,0.2-0.1,0.4-0.4,0.4
		l0.2,0.4C67,77,67.2,76.8,67.2,76.6C67.2,76.7,67.2,76.6,67.2,76.6z M67.7,80l0.2-0.6c0.1-0.1,0.2-0.1,0.4,0c0.1,0.1,0.1,0.3,0,0.4
		C68.3,80,68.1,80,67.7,80z M69.5,68.4c0.3,0.1,0.6,0.1,0.8,0.1c0.2,0.5,0.5,0.9,0.7,1.1L70.3,70H70c-0.1-0.2-0.4-0.5-0.7-0.7
		c-0.4-0.2-0.6-0.3-0.7-0.5C68.8,68.5,69.2,68.3,69.5,68.4z M72.7,76.5c0.6,0,1,0,1.2,0V77c-0.1,0-0.3,0.1-0.7,0.2
		c-0.3,0.1-0.3,0.3-0.1,0.6l0.6-0.6h1.1l0.4-0.2c0-0.4-0.1-0.6-0.2-0.6h-1.1c0.2-0.5,0.4-0.9,0.4-1.1l-1.5-0.9L71.8,75
		c-0.7,0-1.3,0.1-1.7,0.2c0-0.1,0-0.3,0-0.6c0-0.2-0.2-0.2-0.6,0c0,0.2,0.2,0.4,0.6,0.4C70,75.1,70,75.3,70,75.5
		c0.1,0.2,0.2,0.3,0.3,0.3c0.1,0,0.3,0,0.7-0.1c0.3-0.1,0.5,0,0.7,0.3C71.8,76.3,72.1,76.5,72.7,76.5z M70.4,95.6
		c-0.1-0.1-0.1-0.2-0.1-0.3L70,95.7l0.2,0.4l0.2-0.2C70.5,95.7,70.5,95.7,70.4,95.6z M71.6,70.1c0,0,0.1,0,0.2,0
		c0.1-0.1,0.4-0.2,0.9-0.2c0.1,0,0.2,0.1,0.2,0.4c0,0.1-0.1,0.2-0.4,0.4l-0.9-0.2C71.6,70.3,71.6,70.1,71.6,70.1z M78.7,90.1
		c-0.3-0.5-0.4-0.9-0.4-1.3c-1,0-2-0.3-2.9-1c-0.9-0.7-1.6-1.1-2.1-1.2c-0.7,0.6-0.9,1.1-0.6,1.5l1.5,0.2v1.3
		c0.5-0.2,0.9-0.5,1.1-0.7l0.6,0.7h1.3l0.6,0.7L78.7,90.1z M73.9,83.4c0,0.1,0.1,0.2,0.2,0.2c-0.1,0-0.4,0-0.7,0.1
		c-0.4,0.1-0.4,0.3-0.2,0.7l0.6-0.6l0.7-0.2c0.1-0.4,0-0.6-0.4-0.6c-0.1-0.4-0.3-0.6-0.5-0.6s-0.5,0.1-0.8,0.2
		c0,0.3,0.2,0.4,0.5,0.4c0.3,0,0.6,0,0.8,0C73.9,83.1,73.9,83.3,73.9,83.4z M74.4,71.5v-0.6l0.4-0.2v0.4
		C74.8,71.1,74.7,71.2,74.4,71.5z M75.9,78l0.4-0.4v-0.4l-0.4,0.2V78z M77,78.2c0,0,0,0.1,0,0.4c0.4,0,0.7,0.1,0.9,0.2
		c0.2-0.1,0.4-0.2,0.4-0.4L78.2,78h-0.9C77.1,78.1,77,78.2,77,78.2z M78.5,81.5L78,82.1c0.1,0,0.2,0.1,0.2,0.2
		c0.2-0.2,0.4-0.4,0.4-0.6C78.5,81.7,78.5,81.6,78.5,81.5z M78.3,91L78,91.2v0.6l0.4-0.4V91z M78.7,73.3l0.4-0.6l0.2,0.4l-0.4,0.4
		L78.7,73.3z M79.3,78.7c0,0-0.1,0.1-0.4,0.4l0.2,0.4c0.2-0.2,0.4-0.4,0.4-0.6c0.1,0,0.1-0.1,0-0.2C79.3,78.7,79.3,78.7,79.3,78.7z
		 M81.5,1.6h-1.1V1.2L80.8,1h0.9C81.6,1.1,81.5,1.3,81.5,1.6z M81.9,74.4l1.1-0.2v0.6L82.8,75c-0.5,0-0.8-0.1-0.9-0.2V74.4z
		 M83.2,86c0.2,0,0.4,0.1,0.6,0.4c-0.6,0.4-1.1,0.4-1.3,0C82.7,86.1,82.9,86,83.2,86z M84.5,75.6c0,0,0-0.1,0-0.2l0.6-0.2
		c0,0.1,0.1,0.2,0.2,0.2c-0.1,0.1-0.3,0.2-0.6,0.2C84.6,75.6,84.5,75.6,84.5,75.6z M85.5,84c0.2,0.1,0.3,0.2,0.3,0.5
		c-0.1,0-0.3,0-0.7,0.1c-0.3,0.1-0.5-0.1-0.5-0.5C85.1,84,85.3,84,85.5,84z M86.6,84.5c0.3,0,0.5,0.1,0.5,0.4
		c-0.4,0.1-0.7,0.2-0.8,0.2c-0.2,0-0.3-0.2-0.5-0.6C86,84.5,86.3,84.5,86.6,84.5z M88.2,85.2v0.4L87.8,86v-0.6L88.2,85.2z"/>
</g>
</svg>
